PathFileType	4	(X/Y/Z)	C:/Users/opensim2020/Desktop/walking_exp_matlab/subject06_walking20_straight_03.trc																																																																																																																															
DataRate	CameraRate	NumFrames	NumMarkers	Units	OrigDataRate	OrigDataStartFrame	OrigNumFrames																																																																																																																											
100	100	4	43	mm	100	1697	132																																																																																																																											
Frame#	Time	LFHD			RFHD			LBHD			RBHD			C7			T10			CLAV			STRN			RBAK			LSHO			LUPA			LELB			LFRM			LWRA			LWRB			LFIN			RSHO			RUPA			RELB			RFRM			RWRA			RWRB			RFIN			LASI			RASI			LPSI			RPSI			LTHI			LKNE			LTIB			LANK			LHEE			LTOE			RTHI			RKNE			RTIB			RANK			RHEE			RTOE			*39			*40			*41			*42		
		X1	Y1	Z1	X2	Y2	Z2	X3	Y3	Z3	X4	Y4	Z4	X5	Y5	Z5	X6	Y6	Z6	X7	Y7	Z7	X8	Y8	Z8	X9	Y9	Z9	X10	Y10	Z10	X11	Y11	Z11	X12	Y12	Z12	X13	Y13	Z13	X14	Y14	Z14	X15	Y15	Z15	X16	Y16	Z16	X17	Y17	Z17	X18	Y18	Z18	X19	Y19	Z19	X20	Y20	Z20	X21	Y21	Z21	X22	Y22	Z22	X23	Y23	Z23	X24	Y24	Z24	X25	Y25	Z25	X26	Y26	Z26	X27	Y27	Z27	X28	Y28	Z28	X29	Y29	Z29	X30	Y30	Z30	X31	Y31	Z31	X32	Y32	Z32	X33	Y33	Z33	X34	Y34	Z34	X35	Y35	Z35	X36	Y36	Z36	X37	Y37	Z37	X38	Y38	Z38	X39	Y39	Z39	X40	Y40	Z40	X41	Y41	Z41	X42	Y42	Z42	X43	Y43	Z43
																																																																																																																																		
17	0.16	-731.59894	1616.77795	-1047.48706	-742.90405	1595.49207	-918.39813	-868.04858	1571.32642	-1062.46594	-876.39435	1555.01904	-934.18951	-883.48438	1412.91675	-1016.08191	-955.55481	1089.93896	-1010.1203	-781.78912	1323.32068	-1013.36603	-762.31293	1145.17615	-1027.06458	-976.81952	1249.92603	-946.73083	-825.81812	1367.23718	-1175.07068	-801.08441	1175.38904	-1263.40356	-773.05621	1067.44971	-1286.67468	-661.23505	970.64703	-1305.8606	-540.59741	936.25153	-1258.69739	-577.36786	886.03693	-1292.39197	-490.03741	865.12463	-1294.92908	-830.94415	1356.02698	-852.01648	-931.2309	1181.06641	-771.40778	-964.35907	1063.99805	-755.44464	-996.31689	948.44678	-733.56262	-991.26062	795.00507	-752.40503	-1046.12683	819.46802	-720.32153	-1042.6051	735.61914	-712.73492	-803.94263	912.98236	-1127.60522	-782.66101	920.56879	-906.11841	-957.10522	953.97369	-1081.4458	-934.75391	951.53223	-913.64966	-933.10541	618.43127	-1179.81287	-980.11029	457.05338	-1162.71497	-1114.93848	235.67464	-1168.75049	-1194.91418	82.13128	-1131.69287	-1243.69495	79.96503	-1090.47961	-1063.54358	31.91438	-1121.90637	-759.04736	602.75824	-834.41626	-698.61633	493.28558	-869.14331	-645.60516	241.83806	-885.95984	-586.12476	67.19035	-935.48297	-615.3042	37.39869	-982.87244	-429.75165	71.98963	-937.09436	-834.74921	1656.26624	-993.76385	NaN	NaN	NaN	NaN	NaN	NaN	NaN	NaN	NaN
18	0.17	-719.56299	1616.05566	-1047.85754	-730.85883	1594.49048	-918.41461	-855.7005	1570.14099	-1062.72217	-864.20709	1553.69604	-934.48315	-870.92957	1411.79944	-1016.37024	-942.33209	1088.55786	-1010.80444	-769.13354	1322.27393	-1013.40106	-749.27655	1144.11804	-1027.24353	-964.15179	1248.5011	-947.54248	-812.93585	1366.01514	-1175.25623	-787.18408	1174.31079	-1263.42773	-758.26324	1066.64099	-1286.34839	-644.25879	972.74878	-1304.74268	-522.99951	942.22644	-1256.46655	-557.99835	890.81671	-1290.75415	-469.97357	872.80859	-1292.3595	-818.50806	1354.79504	-852.1463	-919.58929	1179.87927	-772.11761	-953.30206	1063.10608	-756.22736	-986.83606	948.00909	-734.23511	-984.33765	794.19739	-753.07758	-1038.26392	819.9317	-720.72351	-1036.35632	735.96826	-713.06799	-790.56024	911.81897	-1128.13269	-769.04504	919.58752	-906.46759	-943.89453	952.10675	-1081.33582	-921.53503	950.27283	-913.4483	-920.87	617.51013	-1180.29272	-969.52057	456.40118	-1163.36206	-1108.97266	238.16608	-1169.4574	-1192.86902	86.40998	-1132.7854	-1241.67102	85.76803	-1091.69629	-1063.16431	31.86359	-1122.21155	-743.89276	602.23608	-834.46356	-684.75079	492.73618	-869.87311	-631.52411	241.19484	-885.38879	-572.00909	66.48367	-934.80865	-601.20422	36.69553	-981.93262	-415.95441	72.20532	-937.05322	-822.71075	1655.07141	-993.9433	NaN	NaN	NaN	NaN	NaN	NaN	NaN	NaN	NaN
19	0.18	-707.58484	1615.54773	-1048.01465	-718.57764	1593.89258	-918.33972	-843.19635	1569.31982	-1062.91455	-851.97919	1552.86951	-934.62292	-858.42535	1411.00427	-1016.48193	-928.75812	1087.396	-1011.40826	-756.32507	1321.5813	-1013.31	-735.95569	1143.49023	-1027.04578	-951.14709	1247.4574	-948.01874	-799.90875	1365.16321	-1175.30994	-773.47321	1173.58691	-1263.12463	-743.84277	1066.03979	-1285.67554	-627.88629	974.8219	-1303.3761	-506.31265	947.74274	-1254.29321	-539.6449	895.24957	-1288.8053	-450.97711	879.98303	-1289.66919	-805.86017	1354.04919	-852.05658	-907.50568	1179.18958	-772.58771	-941.66986	1062.55469	-756.88629	-976.5766	947.87897	-735.00385	-975.83667	794.20697	-752.89661	-1029.63782	820.47076	-721.51678	-1029.18396	736.58112	-713.40985	-776.70892	910.83142	-1128.31702	-755.48547	918.99976	-906.34338	-930.17072	950.64832	-1081.35156	-907.85742	949.56073	-913.40106	-908.05225	616.59778	-1180.52576	-957.76636	455.82755	-1163.71802	-1099.34839	242.59143	-1170.63074	-1190.26367	91.26659	-1133.89978	-1238.9248	92.09525	-1093.02271	-1062.67578	31.84708	-1122.44116	-728.38159	602.49744	-834.71777	-670.39618	492.99438	-870.55304	-618.77209	240.60333	-885.02533	-560.90833	65.22585	-934.64581	-591.10205	36.46384	-981.01147	-405.01535	70.0809	-937.23364	-810.4928	1654.31177	-993.97009	NaN	NaN	NaN	NaN	NaN	NaN	NaN	NaN	NaN
20	0.19	-694.38342	1615.20947	-1047.10144	-706.30603	1593.77209	-918.16461	-830.58319	1568.93884	-1062.95581	-839.4856	1552.52539	-934.73065	-845.65161	1410.47632	-1016.36981	-914.80054	1086.57092	-1011.89465	-743.26624	1321.38452	-1013.0907	-722.29016	1143.27844	-1026.65405	-937.91956	1246.79126	-948.12476	-786.80652	1364.76172	-1175.06653	-759.7525	1173.22217	-1262.34741	-729.67334	1065.72546	-1284.85315	-612.26038	976.84064	-1301.82397	-490.44894	952.85065	-1252.05847	-522.27448	899.55743	-1286.50659	-433.19037	886.59332	-1286.97766	-792.97394	1353.7804	-851.8772	-895.04669	1178.83862	-773.16699	-929.34698	1062.34497	-757.57819	-965.67059	948.10272	-735.50806	-966.90552	794.26044	-753.06458	-1020.4386	821.54132	-721.81873	-1021.28156	737.61884	-713.65961	-762.41681	910.18091	-1128.24463	-741.16003	919.1181	-906.08154	-916.10693	949.7381	-1081.5719	-893.85132	949.52161	-913.32019	-894.60406	615.7713	-1180.52405	-945.24414	455.104	-1163.99231	-1094.77673	243.97084	-1170.50818	-1186.98669	96.70174	-1135.01331	-1235.44922	99.12958	-1094.48108	-1061.73328	32.14128	-1122.77332	-712.69446	603.39697	-835.32092	-655.70172	494.15714	-871.01508	-607.39575	240.14449	-885.40039	-552.9989	63.98101	-935.13031	-585.22028	37.76115	-981.88013	-397.61032	62.31371	-937.56628	-798.09161	1654.12988	-994.02057	NaN	NaN	NaN	NaN	NaN	NaN	NaN	NaN	NaN
